<svg xmlns="http://www.w3.org/2000/svg" viewBox="0 0 192 192">
  <rect width="192" height="192" rx="44" fill="#09090f"/>
  <defs>
    <radialGradient id="halo" cx="50%" cy="62%" r="45%">
      <stop offset="0%" stop-color="rgba(232,201,122,0.18)"/>
      <stop offset="100%" stop-color="rgba(232,201,122,0)"/>
    </radialGradient>
    <radialGradient id="flame" cx="40%" cy="30%" r="70%">
      <stop offset="0%" stop-color="#fdf0c0"/>
      <stop offset="55%" stop-color="#e8c97a"/>
      <stop offset="100%" stop-color="#c8a040"/>
    </radialGradient>
  </defs>
  <ellipse cx="96" cy="118" rx="58" ry="46" fill="url(#halo)"/>
  <path d="M96 42 C78 64 58 84 58 108 C58 130 75 150 96 150 C117 150 134 130 134 108 C134 84 114 64 96 42Z" fill="url(#flame)"/>
  <path d="M96 82 C88 94 82 102 82 114 C82 124 88 132 96 132 C104 132 110 124 110 114 C110 102 104 94 96 82Z" fill="rgba(255,252,235,0.55)"/>
  <ellipse cx="89" cy="116" rx="5" ry="8" fill="rgba(255,255,245,0.45)" transform="rotate(-12 89 116)"/>
</svg>
